<mxfile host="Electron" agent="Mozilla/5.0 (Windows NT 10.0; Win64; x64) AppleWebKit/537.36 (KHTML, like Gecko) draw.io/26.0.16 Chrome/132.0.6834.196 Electron/34.2.0 Safari/537.36" version="26.0.16">
  <diagram name="Page-1" id="-dPIcKe8QbA3c0jQxvfn">
    <mxGraphModel dx="2206" dy="1286" grid="1" gridSize="10" guides="1" tooltips="1" connect="1" arrows="1" fold="1" page="1" pageScale="1" pageWidth="850" pageHeight="1100" math="0" shadow="0">
      <root>
        <mxCell id="0" />
        <mxCell id="1" parent="0" />
        <mxCell id="zoukKVr7SG2NmZqWeOoU-2" value="&lt;font style=&quot;font-size: 15px;&quot;&gt;Requirements Gathering&lt;/font&gt;&lt;div&gt;&lt;font style=&quot;font-size: 11px;&quot;&gt;Judging the scale of the overall project&amp;nbsp;&lt;/font&gt;&lt;/div&gt;&lt;div&gt;&lt;font style=&quot;font-size: 11px;&quot;&gt;and the current level of feasibility of each individual step of making the overall product&lt;/font&gt;&lt;/div&gt;" style="shape=step;perimeter=stepPerimeter;whiteSpace=wrap;html=1;fixedSize=1;fillColor=#b0e3e6;strokeColor=#0e8088;" parent="1" vertex="1">
          <mxGeometry x="120" y="120" width="240" height="80" as="geometry" />
        </mxCell>
        <mxCell id="zoukKVr7SG2NmZqWeOoU-3" value="&lt;font style=&quot;font-size: 15px;&quot;&gt;Analysis&amp;nbsp;&lt;/font&gt;&lt;div&gt;&lt;font style=&quot;font-size: 11px;&quot;&gt;Judging the quality of the procured&amp;nbsp;&lt;/font&gt;&lt;/div&gt;&lt;div&gt;&lt;font style=&quot;font-size: 11px;&quot;&gt;requirements and updating the product&amp;nbsp;&lt;/font&gt;&lt;/div&gt;&lt;div&gt;&lt;font style=&quot;font-size: 11px;&quot;&gt;blueprint to fit the necessary requirements&lt;/font&gt;&lt;/div&gt;" style="shape=step;perimeter=stepPerimeter;whiteSpace=wrap;html=1;fixedSize=1;fillColor=#fad7ac;strokeColor=#b46504;" parent="1" vertex="1">
          <mxGeometry x="120" y="240" width="240" height="80" as="geometry" />
        </mxCell>
        <mxCell id="w0IDhvAIGdiMD3zVf8jR-1" value="&lt;font style=&quot;font-size: 15px;&quot;&gt;Iteration: 1&lt;/font&gt;&lt;div&gt;&lt;font style=&quot;font-size: 15px;&quot;&gt;Prototyping&lt;/font&gt;&lt;/div&gt;" style="text;html=1;align=center;verticalAlign=middle;whiteSpace=wrap;rounded=0;" vertex="1" parent="1">
          <mxGeometry x="180" y="70" width="100" height="30" as="geometry" />
        </mxCell>
        <mxCell id="w0IDhvAIGdiMD3zVf8jR-2" value="&lt;font style=&quot;font-size: 15px;&quot;&gt;Design&lt;/font&gt;&lt;div&gt;&lt;span style=&quot;font-size: 11px;&quot;&gt;Generating a layout for the system and&amp;nbsp;&lt;/span&gt;&lt;/div&gt;&lt;div&gt;&lt;span style=&quot;font-size: 11px;&quot;&gt;all the different ways it may be interacted&lt;/span&gt;&lt;/div&gt;&lt;div&gt;&lt;span style=&quot;font-size: 11px;&quot;&gt;with by different parties&lt;/span&gt;&lt;/div&gt;" style="shape=step;perimeter=stepPerimeter;whiteSpace=wrap;html=1;fixedSize=1;fillColor=#ffcccc;strokeColor=#36393d;" vertex="1" parent="1">
          <mxGeometry x="120" y="360" width="240" height="80" as="geometry" />
        </mxCell>
        <mxCell id="w0IDhvAIGdiMD3zVf8jR-3" value="&lt;font style=&quot;font-size: 15px;&quot;&gt;Testing&lt;/font&gt;&lt;div&gt;&lt;span style=&quot;font-size: 11px;&quot;&gt;Conducting raw tests of the system&#39;s&amp;nbsp;&lt;/span&gt;&lt;/div&gt;&lt;div&gt;&lt;span style=&quot;font-size: 11px; background-color: transparent; color: light-dark(rgb(0, 0, 0), rgb(255, 255, 255));&quot;&gt;facets in relation to real-world use cases concerning different parties&lt;/span&gt;&lt;/div&gt;" style="shape=step;perimeter=stepPerimeter;whiteSpace=wrap;html=1;fixedSize=1;fillColor=#ffff88;strokeColor=#36393d;" vertex="1" parent="1">
          <mxGeometry x="120" y="480" width="240" height="80" as="geometry" />
        </mxCell>
        <mxCell id="w0IDhvAIGdiMD3zVf8jR-4" value="&lt;font style=&quot;font-size: 15px;&quot;&gt;Implementation&lt;/font&gt;&lt;div&gt;&lt;span style=&quot;font-size: 11px;&quot;&gt;Creating a working prototype to show off&lt;br&gt;&lt;/span&gt;&lt;/div&gt;&lt;div&gt;&lt;span style=&quot;font-size: 11px;&quot;&gt;the individual functions of all the tested&lt;/span&gt;&lt;/div&gt;&lt;div&gt;&lt;span style=&quot;font-size: 11px;&quot;&gt;parameters in the field&lt;/span&gt;&lt;/div&gt;" style="shape=step;perimeter=stepPerimeter;whiteSpace=wrap;html=1;fixedSize=1;fillColor=#ffcc99;strokeColor=#36393d;" vertex="1" parent="1">
          <mxGeometry x="120" y="600" width="240" height="80" as="geometry" />
        </mxCell>
        <mxCell id="w0IDhvAIGdiMD3zVf8jR-5" value="&lt;font style=&quot;font-size: 15px;&quot;&gt;Review&lt;/font&gt;&lt;div&gt;&lt;span style=&quot;font-size: 11px; background-color: transparent; color: light-dark(rgb(0, 0, 0), rgb(255, 255, 255));&quot;&gt;Judging the prototype and obtaining info&lt;/span&gt;&lt;/div&gt;&lt;div&gt;&lt;span style=&quot;font-size: 11px; background-color: transparent; color: light-dark(rgb(0, 0, 0), rgb(255, 255, 255));&quot;&gt;about all the positives and negatives of the&lt;/span&gt;&lt;/div&gt;&lt;div&gt;&lt;span style=&quot;font-size: 11px; background-color: transparent; color: light-dark(rgb(0, 0, 0), rgb(255, 255, 255));&quot;&gt;proposed model&lt;/span&gt;&lt;/div&gt;" style="shape=step;perimeter=stepPerimeter;whiteSpace=wrap;html=1;fixedSize=1;fillColor=#dae8fc;strokeColor=#6c8ebf;" vertex="1" parent="1">
          <mxGeometry x="120" y="720" width="240" height="80" as="geometry" />
        </mxCell>
        <mxCell id="w0IDhvAIGdiMD3zVf8jR-6" value="&lt;font style=&quot;font-size: 15px;&quot;&gt;Re-Design&lt;/font&gt;&lt;div&gt;&lt;font style=&quot;font-size: 11px;&quot;&gt;Using insights gained from project&lt;/font&gt;&lt;/div&gt;&lt;div&gt;&lt;span style=&quot;background-color: transparent; color: light-dark(rgb(0, 0, 0), rgb(255, 255, 255)); font-size: 11px;&quot;&gt;review&amp;nbsp;&lt;/span&gt;&lt;span style=&quot;background-color: transparent; color: light-dark(rgb(0, 0, 0), rgb(255, 255, 255)); font-size: 11px;&quot;&gt;to adjust and reappropriate&amp;nbsp;&lt;/span&gt;&lt;/div&gt;&lt;div&gt;&lt;span style=&quot;background-color: transparent; color: light-dark(rgb(0, 0, 0), rgb(255, 255, 255)); font-size: 11px;&quot;&gt;aspects of&amp;nbsp;&lt;/span&gt;&lt;span style=&quot;background-color: transparent; color: light-dark(rgb(0, 0, 0), rgb(255, 255, 255)); font-size: 11px;&quot;&gt;feasibility for the overall product&lt;/span&gt;&lt;/div&gt;" style="shape=step;perimeter=stepPerimeter;whiteSpace=wrap;html=1;fixedSize=1;fillColor=#ffcccc;strokeColor=#36393d;" vertex="1" parent="1">
          <mxGeometry x="520" y="205" width="240" height="80" as="geometry" />
        </mxCell>
        <mxCell id="w0IDhvAIGdiMD3zVf8jR-7" value="&lt;font style=&quot;font-size: 15px;&quot;&gt;Testing&amp;nbsp;&lt;/font&gt;&lt;div&gt;&lt;span style=&quot;font-size: 11px;&quot;&gt;Re-Conducting previous tests and creating&lt;/span&gt;&lt;/div&gt;&lt;div&gt;&lt;span style=&quot;font-size: 11px;&quot;&gt;newer, more refined ideas for previous&lt;/span&gt;&lt;/div&gt;&lt;div&gt;&lt;span style=&quot;font-size: 11px;&quot;&gt;tests to work out an outline for project&lt;/span&gt;&lt;/div&gt;&lt;div&gt;&lt;span style=&quot;font-size: 11px;&quot;&gt;development and completion&lt;/span&gt;&lt;/div&gt;" style="shape=step;perimeter=stepPerimeter;whiteSpace=wrap;html=1;fixedSize=1;fillColor=#ffff88;strokeColor=#36393d;" vertex="1" parent="1">
          <mxGeometry x="520" y="325" width="240" height="80" as="geometry" />
        </mxCell>
        <mxCell id="w0IDhvAIGdiMD3zVf8jR-8" value="&lt;font style=&quot;font-size: 15px;&quot;&gt;Iteration: 2&lt;/font&gt;&lt;div&gt;&lt;font style=&quot;font-size: 15px;&quot;&gt;Alpha Creation&lt;/font&gt;&lt;/div&gt;" style="text;html=1;align=center;verticalAlign=middle;whiteSpace=wrap;rounded=0;" vertex="1" parent="1">
          <mxGeometry x="580" y="155" width="120" height="30" as="geometry" />
        </mxCell>
        <mxCell id="w0IDhvAIGdiMD3zVf8jR-9" value="&lt;font style=&quot;font-size: 15px;&quot;&gt;Implementation -&amp;nbsp;&lt;/font&gt;&lt;b&gt;Î±&lt;/b&gt;&lt;div&gt;&lt;span style=&quot;font-size: 11px; background-color: transparent; color: light-dark(rgb(0, 0, 0), rgb(255, 255, 255));&quot;&gt;Re-Implementing the previous prototype&lt;/span&gt;&lt;/div&gt;&lt;div&gt;&lt;span style=&quot;font-size: 11px; background-color: transparent; color: light-dark(rgb(0, 0, 0), rgb(255, 255, 255));&quot;&gt;model with new additions to account for&lt;/span&gt;&lt;/div&gt;&lt;div&gt;&lt;span style=&quot;font-size: 11px; background-color: transparent; color: light-dark(rgb(0, 0, 0), rgb(255, 255, 255));&quot;&gt;the insights gained through testing&lt;/span&gt;&lt;/div&gt;" style="shape=step;perimeter=stepPerimeter;whiteSpace=wrap;html=1;fixedSize=1;fillColor=#ffcc99;strokeColor=#36393d;" vertex="1" parent="1">
          <mxGeometry x="520" y="445" width="240" height="80" as="geometry" />
        </mxCell>
        <mxCell id="w0IDhvAIGdiMD3zVf8jR-10" value="&lt;font style=&quot;font-size: 15px;&quot;&gt;Review&lt;/font&gt;&lt;div&gt;&lt;div&gt;&lt;span style=&quot;font-size: 11px; background-color: transparent; color: light-dark(rgb(0, 0, 0), rgb(255, 255, 255));&quot;&gt;Judging the alpha model and &lt;/span&gt;&lt;span style=&quot;background-color: transparent; color: light-dark(rgb(0, 0, 0), rgb(255, 255, 255));&quot;&gt;&lt;font style=&quot;font-size: 10px;&quot;&gt;establishing&lt;/font&gt;&lt;/span&gt;&lt;span style=&quot;font-size: 11px; background-color: transparent; color: light-dark(rgb(0, 0, 0), rgb(255, 255, 255));&quot;&gt;&amp;nbsp;&lt;/span&gt;&lt;/div&gt;&lt;div&gt;&lt;span style=&quot;font-size: 11px; background-color: transparent; color: light-dark(rgb(0, 0, 0), rgb(255, 255, 255));&quot;&gt;the necessary real-world use cases for&amp;nbsp;&lt;/span&gt;&lt;/div&gt;&lt;div&gt;&lt;span style=&quot;font-size: 11px; background-color: transparent; color: light-dark(rgb(0, 0, 0), rgb(255, 255, 255));&quot;&gt;the new additions to&amp;nbsp;&lt;/span&gt;&lt;span style=&quot;background-color: transparent; color: light-dark(rgb(0, 0, 0), rgb(255, 255, 255)); font-size: 11px;&quot;&gt;the&amp;nbsp;&lt;/span&gt;&lt;span style=&quot;background-color: transparent; color: light-dark(rgb(0, 0, 0), rgb(255, 255, 255)); font-size: 11px;&quot;&gt;proposed model&lt;/span&gt;&lt;/div&gt;&lt;/div&gt;" style="shape=step;perimeter=stepPerimeter;whiteSpace=wrap;html=1;fixedSize=1;fillColor=#dae8fc;strokeColor=#6c8ebf;" vertex="1" parent="1">
          <mxGeometry x="520" y="565" width="240" height="80" as="geometry" />
        </mxCell>
        <mxCell id="w0IDhvAIGdiMD3zVf8jR-14" value="&lt;font style=&quot;font-size: 15px;&quot;&gt;Re-Re-Design&lt;/font&gt;&lt;div&gt;&lt;font style=&quot;font-size: 11px;&quot;&gt;Using insights gained from alpha&amp;nbsp;&lt;/font&gt;&lt;span style=&quot;background-color: transparent; color: light-dark(rgb(0, 0, 0), rgb(255, 255, 255)); font-size: 11px;&quot;&gt;review&amp;nbsp;&lt;/span&gt;&lt;/div&gt;&lt;div&gt;&lt;span style=&quot;background-color: transparent; color: light-dark(rgb(0, 0, 0), rgb(255, 255, 255)); font-size: 11px;&quot;&gt;to adjust and reappropriate aspects of&lt;/span&gt;&lt;/div&gt;&lt;div&gt;&lt;span style=&quot;background-color: transparent; color: light-dark(rgb(0, 0, 0), rgb(255, 255, 255)); font-size: 11px;&quot;&gt;feasibility for the overall product&lt;/span&gt;&lt;/div&gt;" style="shape=step;perimeter=stepPerimeter;whiteSpace=wrap;html=1;fixedSize=1;fillColor=#ffcccc;strokeColor=#36393d;" vertex="1" parent="1">
          <mxGeometry x="930" y="255" width="240" height="80" as="geometry" />
        </mxCell>
        <mxCell id="w0IDhvAIGdiMD3zVf8jR-15" value="&lt;font style=&quot;font-size: 15px;&quot;&gt;Testing&amp;nbsp;&lt;/font&gt;&lt;div&gt;&lt;span style=&quot;font-size: 11px;&quot;&gt;Re-Conducting previous tests and and&lt;/span&gt;&lt;/div&gt;&lt;div&gt;&lt;span style=&quot;font-size: 11px;&quot;&gt;&amp;nbsp;devising a final outline&lt;/span&gt;&lt;span style=&quot;font-size: 11px; background-color: transparent; color: light-dark(rgb(0, 0, 0), rgb(255, 255, 255));&quot;&gt;&amp;nbsp;for project&lt;/span&gt;&lt;/div&gt;&lt;div&gt;&lt;span style=&quot;font-size: 11px;&quot;&gt;development and completion&lt;/span&gt;&lt;/div&gt;" style="shape=step;perimeter=stepPerimeter;whiteSpace=wrap;html=1;fixedSize=1;fillColor=#ffff88;strokeColor=#36393d;" vertex="1" parent="1">
          <mxGeometry x="930" y="375" width="240" height="80" as="geometry" />
        </mxCell>
        <mxCell id="w0IDhvAIGdiMD3zVf8jR-16" value="&lt;font style=&quot;font-size: 15px;&quot;&gt;Iteration: 3&lt;/font&gt;&lt;div&gt;&lt;font style=&quot;font-size: 15px;&quot;&gt;Beta Creation&lt;/font&gt;&lt;/div&gt;" style="text;html=1;align=center;verticalAlign=middle;whiteSpace=wrap;rounded=0;" vertex="1" parent="1">
          <mxGeometry x="990" y="205" width="120" height="30" as="geometry" />
        </mxCell>
        <mxCell id="w0IDhvAIGdiMD3zVf8jR-17" value="&lt;font style=&quot;font-size: 15px;&quot;&gt;Implementation -&amp;nbsp;Î²&lt;/font&gt;&lt;div&gt;&lt;span style=&quot;font-size: 11px; background-color: transparent; color: light-dark(rgb(0, 0, 0), rgb(255, 255, 255));&quot;&gt;Re-Working the alpha product&lt;/span&gt;&lt;/div&gt;&lt;div&gt;&lt;span style=&quot;font-size: 11px; background-color: transparent; color: light-dark(rgb(0, 0, 0), rgb(255, 255, 255));&quot;&gt;model with new additions to eliminate and optimise the flaws in the previous stages&lt;/span&gt;&lt;/div&gt;" style="shape=step;perimeter=stepPerimeter;whiteSpace=wrap;html=1;fixedSize=1;fillColor=#ffcc99;strokeColor=#36393d;" vertex="1" parent="1">
          <mxGeometry x="930" y="495" width="240" height="80" as="geometry" />
        </mxCell>
        <mxCell id="w0IDhvAIGdiMD3zVf8jR-18" value="&lt;font style=&quot;font-size: 15px;&quot;&gt;Review&lt;/font&gt;&lt;div&gt;&lt;div&gt;&lt;span style=&quot;font-size: 11px; background-color: transparent; color: light-dark(rgb(0, 0, 0), rgb(255, 255, 255));&quot;&gt;Judging the beta model and&amp;nbsp;&lt;/span&gt;&lt;span style=&quot;background-color: transparent; color: light-dark(rgb(0, 0, 0), rgb(255, 255, 255)); font-size: 11px;&quot;&gt;devising&amp;nbsp;&lt;/span&gt;&lt;/div&gt;&lt;div&gt;&lt;span style=&quot;font-size: 11px; background-color: transparent; color: light-dark(rgb(0, 0, 0), rgb(255, 255, 255));&quot;&gt;final&amp;nbsp;&lt;/span&gt;&lt;span style=&quot;font-size: 11px; background-color: transparent; color: light-dark(rgb(0, 0, 0), rgb(255, 255, 255));&quot;&gt;criteria for product to be fit for&amp;nbsp;&lt;/span&gt;&lt;/div&gt;&lt;/div&gt;&lt;div&gt;&lt;span style=&quot;font-size: 11px; background-color: transparent; color: light-dark(rgb(0, 0, 0), rgb(255, 255, 255));&quot;&gt;deployment&amp;nbsp;&lt;/span&gt;&lt;span style=&quot;font-size: 11px; background-color: transparent; color: light-dark(rgb(0, 0, 0), rgb(255, 255, 255));&quot;&gt;and long-term maintainability&lt;/span&gt;&lt;/div&gt;" style="shape=step;perimeter=stepPerimeter;whiteSpace=wrap;html=1;fixedSize=1;fillColor=#dae8fc;strokeColor=#6c8ebf;" vertex="1" parent="1">
          <mxGeometry x="930" y="615" width="240" height="80" as="geometry" />
        </mxCell>
        <mxCell id="w0IDhvAIGdiMD3zVf8jR-19" value="&lt;font style=&quot;font-size: 15px;&quot;&gt;Deployment&lt;/font&gt;&lt;div&gt;&lt;div&gt;&lt;span style=&quot;font-size: 11px;&quot;&gt;Devising the final implementation of the&amp;nbsp;&lt;/span&gt;&lt;/div&gt;&lt;/div&gt;&lt;div&gt;&lt;span style=&quot;font-size: 11px;&quot;&gt;project for release, accounting for all the&amp;nbsp;&lt;/span&gt;&lt;span style=&quot;font-size: 11px; background-color: transparent; color: light-dark(rgb(0, 0, 0), rgb(255, 255, 255));&quot;&gt;reviewed information over the previous iterations&lt;/span&gt;&lt;/div&gt;" style="shape=step;perimeter=stepPerimeter;whiteSpace=wrap;html=1;fixedSize=1;fillColor=#ffcc99;strokeColor=#36393d;" vertex="1" parent="1">
          <mxGeometry x="1300" y="440" width="240" height="80" as="geometry" />
        </mxCell>
        <mxCell id="w0IDhvAIGdiMD3zVf8jR-20" value="&lt;font style=&quot;font-size: 15px;&quot;&gt;Maintenance&lt;/font&gt;&lt;div&gt;&lt;div&gt;&lt;span style=&quot;font-size: 11px;&quot;&gt;Changing aspects of the project&#39;s source&lt;/span&gt;&lt;/div&gt;&lt;/div&gt;&lt;div&gt;&lt;span style=&quot;font-size: 11px;&quot;&gt;code over time to continually keep up with&lt;/span&gt;&lt;/div&gt;&lt;div&gt;&lt;span style=&quot;font-size: 11px;&quot;&gt;real-world use&lt;/span&gt;&lt;/div&gt;" style="shape=step;perimeter=stepPerimeter;whiteSpace=wrap;html=1;fixedSize=1;fillColor=#e1d5e7;strokeColor=#9673a6;" vertex="1" parent="1">
          <mxGeometry x="1300" y="575" width="240" height="80" as="geometry" />
        </mxCell>
        <mxCell id="w0IDhvAIGdiMD3zVf8jR-21" value="&lt;font style=&quot;font-size: 15px;&quot;&gt;Final Iteration&lt;/font&gt;&lt;div&gt;&lt;span style=&quot;font-size: 15px;&quot;&gt;Release&lt;/span&gt;&lt;/div&gt;" style="text;html=1;align=center;verticalAlign=middle;whiteSpace=wrap;rounded=0;" vertex="1" parent="1">
          <mxGeometry x="1360" y="400" width="120" height="30" as="geometry" />
        </mxCell>
        <mxCell id="w0IDhvAIGdiMD3zVf8jR-27" value="" style="endArrow=classic;html=1;rounded=0;exitX=0.5;exitY=1;exitDx=0;exitDy=0;entryX=0.5;entryY=0;entryDx=0;entryDy=0;" edge="1" parent="1" source="zoukKVr7SG2NmZqWeOoU-2" target="zoukKVr7SG2NmZqWeOoU-3">
          <mxGeometry width="50" height="50" relative="1" as="geometry">
            <mxPoint x="330" y="430" as="sourcePoint" />
            <mxPoint x="380" y="380" as="targetPoint" />
          </mxGeometry>
        </mxCell>
        <mxCell id="w0IDhvAIGdiMD3zVf8jR-28" value="" style="endArrow=classic;html=1;rounded=0;exitX=0.5;exitY=1;exitDx=0;exitDy=0;entryX=0.5;entryY=0;entryDx=0;entryDy=0;" edge="1" parent="1">
          <mxGeometry width="50" height="50" relative="1" as="geometry">
            <mxPoint x="239.64" y="320" as="sourcePoint" />
            <mxPoint x="239.64" y="360" as="targetPoint" />
          </mxGeometry>
        </mxCell>
        <mxCell id="w0IDhvAIGdiMD3zVf8jR-29" value="" style="endArrow=classic;html=1;rounded=0;exitX=0.5;exitY=1;exitDx=0;exitDy=0;entryX=0.5;entryY=0;entryDx=0;entryDy=0;" edge="1" parent="1">
          <mxGeometry width="50" height="50" relative="1" as="geometry">
            <mxPoint x="239.64" y="440" as="sourcePoint" />
            <mxPoint x="239.64" y="480" as="targetPoint" />
          </mxGeometry>
        </mxCell>
        <mxCell id="w0IDhvAIGdiMD3zVf8jR-30" value="" style="endArrow=classic;html=1;rounded=0;exitX=0.5;exitY=1;exitDx=0;exitDy=0;entryX=0.5;entryY=0;entryDx=0;entryDy=0;" edge="1" parent="1">
          <mxGeometry width="50" height="50" relative="1" as="geometry">
            <mxPoint x="239.64" y="560" as="sourcePoint" />
            <mxPoint x="239.64" y="600" as="targetPoint" />
          </mxGeometry>
        </mxCell>
        <mxCell id="w0IDhvAIGdiMD3zVf8jR-31" value="" style="endArrow=classic;html=1;rounded=0;exitX=0.5;exitY=1;exitDx=0;exitDy=0;entryX=0.5;entryY=0;entryDx=0;entryDy=0;" edge="1" parent="1">
          <mxGeometry width="50" height="50" relative="1" as="geometry">
            <mxPoint x="239.64" y="680" as="sourcePoint" />
            <mxPoint x="239.64" y="720" as="targetPoint" />
          </mxGeometry>
        </mxCell>
        <mxCell id="w0IDhvAIGdiMD3zVf8jR-32" value="" style="endArrow=classic;html=1;rounded=0;exitX=0.5;exitY=1;exitDx=0;exitDy=0;entryX=0.5;entryY=0;entryDx=0;entryDy=0;" edge="1" parent="1">
          <mxGeometry width="50" height="50" relative="1" as="geometry">
            <mxPoint x="639.64" y="285" as="sourcePoint" />
            <mxPoint x="639.64" y="325" as="targetPoint" />
          </mxGeometry>
        </mxCell>
        <mxCell id="w0IDhvAIGdiMD3zVf8jR-33" value="" style="endArrow=classic;html=1;rounded=0;exitX=0.5;exitY=1;exitDx=0;exitDy=0;entryX=0.5;entryY=0;entryDx=0;entryDy=0;" edge="1" parent="1">
          <mxGeometry width="50" height="50" relative="1" as="geometry">
            <mxPoint x="639.64" y="405" as="sourcePoint" />
            <mxPoint x="639.64" y="445" as="targetPoint" />
          </mxGeometry>
        </mxCell>
        <mxCell id="w0IDhvAIGdiMD3zVf8jR-34" value="" style="endArrow=classic;html=1;rounded=0;exitX=0.5;exitY=1;exitDx=0;exitDy=0;entryX=0.5;entryY=0;entryDx=0;entryDy=0;" edge="1" parent="1">
          <mxGeometry width="50" height="50" relative="1" as="geometry">
            <mxPoint x="639.64" y="525" as="sourcePoint" />
            <mxPoint x="639.64" y="565" as="targetPoint" />
          </mxGeometry>
        </mxCell>
        <mxCell id="w0IDhvAIGdiMD3zVf8jR-35" value="" style="endArrow=classic;html=1;rounded=0;exitX=0.5;exitY=1;exitDx=0;exitDy=0;entryX=0.5;entryY=0;entryDx=0;entryDy=0;" edge="1" parent="1">
          <mxGeometry width="50" height="50" relative="1" as="geometry">
            <mxPoint x="1049.64" y="335" as="sourcePoint" />
            <mxPoint x="1049.64" y="375" as="targetPoint" />
          </mxGeometry>
        </mxCell>
        <mxCell id="w0IDhvAIGdiMD3zVf8jR-36" value="" style="endArrow=classic;html=1;rounded=0;exitX=0.5;exitY=1;exitDx=0;exitDy=0;entryX=0.5;entryY=0;entryDx=0;entryDy=0;" edge="1" parent="1">
          <mxGeometry width="50" height="50" relative="1" as="geometry">
            <mxPoint x="1049.64" y="455" as="sourcePoint" />
            <mxPoint x="1049.64" y="495" as="targetPoint" />
          </mxGeometry>
        </mxCell>
        <mxCell id="w0IDhvAIGdiMD3zVf8jR-37" value="" style="endArrow=classic;html=1;rounded=0;exitX=0.5;exitY=1;exitDx=0;exitDy=0;entryX=0.5;entryY=0;entryDx=0;entryDy=0;" edge="1" parent="1">
          <mxGeometry width="50" height="50" relative="1" as="geometry">
            <mxPoint x="1049.64" y="575" as="sourcePoint" />
            <mxPoint x="1049.64" y="615" as="targetPoint" />
          </mxGeometry>
        </mxCell>
        <mxCell id="w0IDhvAIGdiMD3zVf8jR-38" value="" style="endArrow=classic;startArrow=classic;html=1;rounded=0;entryX=0.5;entryY=1;entryDx=0;entryDy=0;exitX=0.5;exitY=0;exitDx=0;exitDy=0;" edge="1" parent="1" source="w0IDhvAIGdiMD3zVf8jR-20" target="w0IDhvAIGdiMD3zVf8jR-19">
          <mxGeometry width="50" height="50" relative="1" as="geometry">
            <mxPoint x="1110" y="450" as="sourcePoint" />
            <mxPoint x="1160" y="400" as="targetPoint" />
          </mxGeometry>
        </mxCell>
        <mxCell id="w0IDhvAIGdiMD3zVf8jR-39" value="" style="curved=1;endArrow=classic;html=1;rounded=0;exitX=1;exitY=0.5;exitDx=0;exitDy=0;entryX=0;entryY=0.5;entryDx=0;entryDy=0;" edge="1" parent="1" source="w0IDhvAIGdiMD3zVf8jR-5" target="w0IDhvAIGdiMD3zVf8jR-6">
          <mxGeometry width="50" height="50" relative="1" as="geometry">
            <mxPoint x="430" y="760" as="sourcePoint" />
            <mxPoint x="440" y="410" as="targetPoint" />
            <Array as="points">
              <mxPoint x="480" y="760" />
              <mxPoint x="390" y="230" />
            </Array>
          </mxGeometry>
        </mxCell>
        <mxCell id="w0IDhvAIGdiMD3zVf8jR-40" value="" style="curved=1;endArrow=classic;html=1;rounded=0;exitX=1;exitY=0.5;exitDx=0;exitDy=0;entryX=0;entryY=0.5;entryDx=0;entryDy=0;" edge="1" parent="1" source="w0IDhvAIGdiMD3zVf8jR-10" target="w0IDhvAIGdiMD3zVf8jR-14">
          <mxGeometry width="50" height="50" relative="1" as="geometry">
            <mxPoint x="750" y="790" as="sourcePoint" />
            <mxPoint x="930" y="275" as="targetPoint" />
            <Array as="points">
              <mxPoint x="870" y="630" />
              <mxPoint x="780" y="260" />
            </Array>
          </mxGeometry>
        </mxCell>
        <mxCell id="w0IDhvAIGdiMD3zVf8jR-41" value="" style="curved=1;endArrow=classic;html=1;rounded=0;exitX=1;exitY=0.5;exitDx=0;exitDy=0;entryX=0;entryY=0.5;entryDx=0;entryDy=0;" edge="1" parent="1" source="w0IDhvAIGdiMD3zVf8jR-18" target="w0IDhvAIGdiMD3zVf8jR-19">
          <mxGeometry width="50" height="50" relative="1" as="geometry">
            <mxPoint x="1180" y="655" as="sourcePoint" />
            <mxPoint x="1370" y="345" as="targetPoint" />
            <Array as="points">
              <mxPoint x="1290" y="680" />
              <mxPoint x="1200" y="440" />
            </Array>
          </mxGeometry>
        </mxCell>
        <mxCell id="w0IDhvAIGdiMD3zVf8jR-42" value="&lt;font face=&quot;Verdana&quot; style=&quot;font-size: 36px;&quot;&gt;The Iterative Process for Developing&amp;nbsp;&lt;/font&gt;&lt;div&gt;&lt;font face=&quot;Verdana&quot; style=&quot;font-size: 36px;&quot;&gt;Hospital Management System&lt;/font&gt;&lt;/div&gt;" style="text;html=1;align=center;verticalAlign=middle;whiteSpace=wrap;rounded=0;" vertex="1" parent="1">
          <mxGeometry x="500" y="30" width="1080" height="90" as="geometry" />
        </mxCell>
      </root>
    </mxGraphModel>
  </diagram>
</mxfile>
